<?xml version="1.0" encoding="utf-8"?>
<!-- Generator: Adobe Illustrator 21.1.0, SVG Export Plug-In . SVG Version: 6.00 Build 0)  -->
<svg version="1.1" id="Layer_1" xmlns="http://www.w3.org/2000/svg" xmlns:xlink="http://www.w3.org/1999/xlink" x="0px" y="0px"
	 viewBox="0 0 1920 1080" style="enable-background:new 0 0 1920 1080;" xml:space="preserve">
<g>
	<polyline style="fill:#7670B4;" points="468.8,820.2 87.4,438.7 468.8,57.3 850.3,438.7 468.8,820.2 	"/>
	<polyline style="fill:#FFFFFF;" points="472.1,596.4 310.1,434.4 472.1,272.4 634.1,434.4 472.1,596.4 	"/>
	<polyline style="fill:#7670B4;" points="472.1,417.1 415.5,360.4 472.1,303.8 528.7,360.4 472.1,417.1 	"/>
	<path style="fill:#FFFFFF;" d="M489.6,360.4c0,9.7-7.8,17.5-17.5,17.5c-9.7,0-17.5-7.8-17.5-17.5c0-9.7,7.8-17.5,17.5-17.5
		C481.8,342.9,489.6,350.8,489.6,360.4"/>
	<polyline style="fill:#7670B4;" points="545.8,489.9 489.1,433.2 545.8,376.6 602.4,433.2 545.8,489.9 	"/>
	<path style="fill:#FFFFFF;" d="M563.3,433.2c0,9.7-7.8,17.5-17.5,17.5c-9.7,0-17.5-7.8-17.5-17.5c0-9.7,7.8-17.5,17.5-17.5
		C555.5,415.7,563.3,423.6,563.3,433.2"/>
	<polyline style="fill:#7670B4;" points="473.9,562.7 417.2,506 473.9,449.4 530.5,506 473.9,562.7 	"/>
	<path style="fill:#FFFFFF;" d="M491.4,506c0,9.7-7.8,17.5-17.5,17.5c-9.7,0-17.5-7.8-17.5-17.5c0-9.7,7.8-17.5,17.5-17.5
		C483.6,488.5,491.4,496.4,491.4,506"/>
	<polyline style="fill:#7670B4;" points="399.3,489 342.7,432.3 399.3,375.7 455.9,432.3 399.3,489 	"/>
	<path style="fill:#FFFFFF;" d="M416.8,432.3c0,9.7-7.8,17.5-17.5,17.5c-9.7,0-17.5-7.8-17.5-17.5c0-9.7,7.8-17.5,17.5-17.5
		C409,414.8,416.8,422.7,416.8,432.3"/>
	<path style="fill:#FFFFFF;" d="M469.4,274.6l35.5-35.5c0,0,21.6-22.9,60.7-11.2c0,0,33.3,7.6,43.6,45.8c0,0,8.5,28.8-13.5,51.7
		l-34.4,34.4l-3.4,3.4L469.4,274.6"/>
	<path style="fill:#7670B4;" d="M487.7,287.6l31.2-30.7c0,0,14-14.9,39.5-7.3c0,0,21.6,5,28.4,29.8c0,0,5.6,18.7-8.8,33.6l-30.5,30
		l-2.2,2.2L487.7,287.6"/>
	<path style="fill:#FFFFFF;" d="M562.5,289.3c0,9.8-7.9,17.7-17.7,17.7c-9.8,0-17.7-7.9-17.7-17.7c0-9.8,7.9-17.7,17.7-17.7
		C554.6,271.6,562.5,279.5,562.5,289.3"/>
	<path style="fill:#FFFFFF;" d="M385.4,362.7l-35.5-35.5c0,0-22.9-21.6-11.2-60.7c0,0,7.6-33.3,45.8-43.6c0,0,28.8-8.5,51.7,13.5
		l34.4,34.4l3.4,3.4L385.4,362.7"/>
	<path style="fill:#7670B4;" d="M398.4,344.4l-30.7-31.2c0,0-14.9-14-7.3-39.5c0,0,5-21.6,29.8-28.4c0,0,18.7-5.6,33.6,8.8l30,30.5
		l2.2,2.2L398.4,344.4"/>
	<path style="fill:#FFFFFF;" d="M400.1,269.6c9.8,0,17.7,7.9,17.7,17.7c0,9.8-7.9,17.7-17.7,17.7c-9.8,0-17.7-7.9-17.7-17.7
		C382.4,277.5,390.3,269.6,400.1,269.6"/>
	<path style="fill:#FFFFFF;" d="M469.4,594.8l35.5,35.5c0,0,21.6,22.9,60.7,11.2c0,0,33.3-7.6,43.6-45.8c0,0,8.5-28.8-13.5-51.7
		l-34.4-34.4l-3.4-3.4L469.4,594.8"/>
	<path style="fill:#7670B4;" d="M487.7,581.8l31.2,30.7c0,0,14,14.9,39.5,7.3c0,0,21.6-5,28.4-29.8c0,0,5.6-18.7-8.8-33.6l-30.5-30
		l-2.2-2.2L487.7,581.8"/>
	<path style="fill:#FFFFFF;" d="M562.5,580.1c0-9.8-7.9-17.7-17.7-17.7c-9.8,0-17.7,7.9-17.7,17.7s7.9,17.7,17.7,17.7
		C554.6,597.8,562.5,589.9,562.5,580.1"/>
	<path style="fill:#FFFFFF;" d="M385.4,506.7l-35.5,35.5c0,0-22.9,21.6-11.2,60.7c0,0,7.6,33.3,45.8,43.6c0,0,28.8,8.5,51.7-13.5
		l34.4-34.4l3.4-3.4L385.4,506.7"/>
	<path style="fill:#7670B4;" d="M398.4,525l-30.7,31.2c0,0-14.9,14-7.3,39.5c0,0,5,21.6,29.8,28.4c0,0,18.7,5.6,33.6-8.8l30-30.5
		l2.2-2.2L398.4,525"/>
	<path style="fill:#FFFFFF;" d="M400.1,599.8c9.8,0,17.7-7.9,17.7-17.7c0-9.8-7.9-17.7-17.7-17.7c-9.8,0-17.7,7.9-17.7,17.7
		C382.4,591.9,390.3,599.8,400.1,599.8"/>
	<path style="fill:#FFFFFF;" d="M328.3,417.8l-27.5-27.3c0,0-37.5-34.8-79.2-10.2c0,0-34.1,19.2-32.6,65c0,0,4.8,58.4,71,51.8
		c0,0,24.8-3.6,44.1-24.9l22.4-23.1L328.3,417.8"/>
	<path style="fill:#7670B4;" d="M311.5,432.8l-27.2-26.4c0,0-24.1-22.5-50.8-6.6c0,0-21.9,12.4-21,42.1c0,0,3.1,37.8,45.6,33.6
		c0,0,15.9-2.3,28.3-16.1l14.4-14.9L311.5,432.8"/>
	<path style="fill:#FFFFFF;" d="M272.5,434.9c0,10.1-8.2,18.3-18.3,18.3c-10.1,0-18.3-8.2-18.3-18.3c0-10.1,8.2-18.3,18.3-18.3
		C264.4,416.6,272.5,424.8,272.5,434.9"/>
	<path style="fill:#FFFFFF;" d="M617.6,417.8l27.5-27.3c0,0,37.5-34.8,79.2-10.2c0,0,34.1,19.2,32.6,65c0,0-4.8,58.4-71,51.8
		c0,0-24.8-3.6-44.1-24.9l-22.4-23.1L617.6,417.8"/>
	<path style="fill:#7670B4;" d="M634.4,432.8l27.2-26.4c0,0,24.1-22.5,50.8-6.6c0,0,21.9,12.4,21,42.1c0,0-3.1,37.8-45.6,33.6
		c0,0-15.9-2.3-28.3-16.1l-14.4-14.9L634.4,432.8"/>
	<path style="fill:#FFFFFF;" d="M673.4,434.9c0,10.1,8.2,18.3,18.3,18.3c10.1,0,18.3-8.2,18.3-18.3c0-10.1-8.2-18.3-18.3-18.3
		C681.5,416.6,673.4,424.8,673.4,434.9"/>
	<path d="M1745.6,409.4c-19.9,0-36,16.1-36,36c0,19.9,16.1,36,36,36c19.9,0,36-16.1,36-36C1781.6,425.5,1765.5,409.4,1745.6,409.4
		 M1745.6,476.8c-17.4,0-31.5-14.1-31.5-31.5c0-17.4,14.1-31.5,31.5-31.5c17.4,0,31.5,14.1,31.5,31.5
		C1777.1,462.7,1763,476.8,1745.6,476.8z"/>
	<path d="M1734.2,443.3h10.1c2.2,0,3.8-0.2,5.1-0.7c1.2-0.5,2.1-1.2,2.8-2.3c0.6-1.1,0.9-2.2,0.9-3.5c0-1.8-0.6-3.3-1.8-4.5
		c-1.2-1.2-3.1-1.8-5.8-1.8h-11.3V443.3z M1729.5,464.9v-38.5h15.8c3.2,0,5.6,0.3,7.3,1c1.7,0.7,3,1.9,4,3.7c1,1.7,1.5,3.7,1.5,5.8
		c0,2.7-0.8,5-2.5,6.9c-1.6,1.9-4.2,3.1-7.6,3.6c1.3,0.6,2.2,1.3,2.9,1.9c1.4,1.4,2.7,3.1,3.9,5.1l6.2,10.5h-5.9l-4.7-8
		c-1.4-2.3-2.5-4.1-3.4-5.3c-0.9-1.2-1.7-2.1-2.4-2.6c-0.7-0.5-1.4-0.8-2.2-1c-0.5-0.1-1.4-0.2-2.6-0.2h-5.5v17.1H1729.5z"/>
	<polyline points="874.7,435.5 874.7,477.7 923.3,477.7 923.3,599.1 979,599.1 979,478.6 1026.6,478.6 1026.6,435.5 874.7,435.5 	
		"/>
	<polygon points="1101.2,534.4 1170,534.4 1170,497.5 1101.2,497.5 1101.2,474.6 1182.5,474.6 1182.5,435.5 1046.8,435.9 
		1046.8,599.5 1186.1,599.5 1186.1,560.9 1101.7,560.9 	"/>
	<path d="M1201.4,529h48.5v23.8c0,0-0.4,10.3,14.4,10.3c0,0,11.7,2.2,14.4-12.6V435.9h54.4v116.4c0,0,1.3,50.8-61.6,52.1
		c0,0-65.2,6.7-70.1-49.9C1201.4,554.6,1200.5,546.9,1201.4,529"/>
	<path d="M1463.9,435.9H1409l-60.2,163.6l53.5,0.4l7.2-21.1h54.4l6.7,20.7h53.9L1463.9,435.9 M1419.4,543.8l17.5-57.1l16.6,57.1
		H1419.4z"/>
	<path d="M1628.8,483.1h52.1c0,0-2.7-53.5-71.9-51.2c0,0-71.5-5.8-72.8,52.1c0,0-7.6,44,66.1,53c0,0,35.1,5.4,29.2,20.2
		c0,0-2.7,9.4-23.4,9.4c0,0-19.3-0.5-22.9-17.5h-52.1c0,0,0.9,55.7,75.5,55.7c0,0,58.4,3.1,72.8-35.5c0,0,10.8-22.1-3.1-44.4
		c-3.4-5.4-7.3-9.3-10.8-12.1c-2.8-2.2-9.4-5.7-12.1-6.7c-9.5-3.7-29.2-11.1-50.8-14.5c0,0-20.5-4.5-13.6-16.8
		c0.7-1.2,2.7-3.1,4.7-4.5c0,0,3.3-1.6,11.2-2.1C1606.8,468.3,1628.8,467.4,1628.8,483.1"/>
	<polyline style="fill:#7670B4;" points="1831,650.3 732.7,650.3 732.7,639.5 1831,639.5 1831,650.3 	"/>
	<path d="M727.5,708.3c0,0,8.8-0.2,14.4,1.3c0,0,6.1,3.1,14.2-0.2c0,0,7.9-1.6,11.2-1.1v4.3c0,0-13.3,0.2-13.5,19.1v78.6
		c0,0-12.4-1.3-16,0.9l-64-75.3v42.7c0,0-0.6,20,6.1,23.6c0,0,4.7,2.7,9.9,2.9v4.5c0,0-8.1,0.4-14.2-1.3c0,0-7.9-3.4-15.4-0.1
		c0,0-8.2,2.4-12.8,2.1v-5.2c0,0,14.2-0.7,14.5-14.3V732c0,0,2.2-20.2-14.3-19.3v-5.1c0,0,6.7-0.2,11.1,1.2c0,0,7.6,4.2,14.8-0.3
		c0,0,6.1-3.4,11.9,5.1l56.6,64.1v-46.3c0,0,2.1-18.1-14.6-18.6V708.3"/>
	<path d="M892.4,801.2c0,0-1.9-1.7,0.1-4.7c0,0,0.6-11,0.7-14.2H888c0,0,1.9,17.1-13.2,17h-20.5c-4.2-1.7-7.8-5.5-7.9-13.3v-24.7
		h14.4c14.4,0.2,14.6,10.3,14.6,10.3h3.3c0.3-2.6-0.9-8.6-0.9-8.6c-2.6-6.2-0.2-10.8-0.2-10.8c1.2-4.3,1-11,1-11h-3.4
		c-0.4,12.8-14.2,11.1-14.2,11.1h-14.5v-21.3c0.1-7,0.7-11.4,1.5-14.2h19.3c15.1-0.1,13.2,15.3,13.2,15.3h5.2
		c-0.1-2.8-0.8-12.7-0.8-12.7c-2.1-2.7-0.1-4.2-0.1-4.2c1.2-0.9,1.6-3.6,1.6-3.6c-0.3-3.4-3.6-3.4-3.6-3.4l-30.3-0.2
		c-7.1,0.4-11.3,1.2-13.5,1.8c-0.2,0-0.3,0-0.3,0c-0.2,0.1-0.3,0.1-0.5,0.2c-0.6,0.2-1,0.3-1.2,0.4c-7.7,2.3-16.1-1.3-16.1-1.3
		c-5.6-1.6-14.4-1.3-14.4-1.3v4.5c16.7,0.6,14.6,18.6,14.6,18.6v9.1v37.2v9.1c0,0,2.1,18.1-14.6,18.6v4.5c0,0,8.8,0.2,14.4-1.3
		c0,0,9.2-4,17.3-0.6c0,0,0.5,0.2,1.5,0.5l-0.2,0.1c0,0,0.7,0.1,2,0.3c1.9,0.4,4.6,0.7,7.7,0.7c2.9,0.2,6.5,0.3,10.8,0.2l30.3-0.2
		c0,0,3.3,0,3.6-3.8C894,805.2,893.6,802.2,892.4,801.2"/>
	<path d="M1033.2,719.9c-3.1-5.2-0.9-7.8-0.9-7.8c1-3.1,1.3-7,1.3-7h-5.5c-0.3,3.7-5.7,3.4-5.7,3.4h-33.8h-4.2h-33.8
		c0,0-5.4,0.3-5.7-3.4h-5.5c0,0,0.3,3.9,1.3,7c0,0,2.2,2.5-0.9,7.8c0,0-2.2,8.8-2.1,14.7h5.2c0,0,0-18.9,18.4-18.9h12.3v70.7
		c0,0,2.1,18.1-17.2,18.6v4.5c0,0,13,0.2,21.3-1.3c0,0,9-3.1,21,0.2c0,0,11.7,1.6,16.7,1.1v-4.3c0,0-15.2-0.2-15.5-19.1v-70.5h11.7
		c18.4,0,18.4,18.9,18.4,18.9h5.2C1035.4,728.8,1033.2,719.9,1033.2,719.9"/>
	<polygon points="987.2,715.8 984.4,708.6 1022.4,708.6 	"/>
	<path d="M1333.8,705.1c-32.4,0-58.6,23.8-58.6,53.3c0,29.4,26.3,53.3,58.6,53.3c32.4,0,58.6-23.8,58.6-53.3
		C1392.4,729,1366.1,705.1,1333.8,705.1 M1333.8,806.7c-16.5,0-29.8-21.6-29.8-48.3c0-26.7,13.3-48.3,29.8-48.3
		c16.5,0,29.8,21.6,29.8,48.3C1363.6,785,1350.2,806.7,1333.8,806.7z"/>
	<path d="M1222.5,708.7c0,0-6.7,3.1-15,0.5c0,0-5-1.8-9-1.3l-0.1,4.9c0,0,11.9-1.4,8.8,15.5c-0.1,0.6-11.7,37.5-14.6,46.8
		l-27.6-67.3c0,0-7.2,0.9-12,0l-25.1,66.7c-3.3-10.5-14.3-45.5-14.4-46c-4.1-18.9,8.8-16.4,8.8-16.4v-4.3c-4-0.4-13.3,1.1-13.3,1.1
		c-9.6,3.4-19.8,0-19.8,0c-6.6-1.6-13.9-1.1-13.9-1.1v4.5c6.9,0.5,12.1,15,14,21.2c0.5,1.6,24.4,75.7,24.4,75.7l0.2-0.4l0.1,0.8
		c0,0,6.9-2.7,12.1,0.3l27-70.3l26.7,70.3c0,0,5.5-2.8,12.3,0l0.5-1.7l0,0.1c0,0,25.7-76.8,26.2-78.4c1.9-6.1,10.7-17.3,17.6-17.8
		v-4.5C1236.5,707.6,1228.8,706.5,1222.5,708.7"/>
	<path d="M1530.8,793.2c0,0-12-17.1-15.9-27l-4.8-7.8c0,0,18.9-3.9,18.9-24c0,0,4.2-19.8-24.9-26.1c0,0-21.9-3.6-41,1.5
		c0,0-4.5,1.8-10.2-0.3c0,0-9.6-2.1-19.8-1.8v4.5c0,0,12.4-2.1,14.8,16.1v58.5c0,0,2.1,18.1-16.8,18.6v4.5c0,0,12.7,0.2,20.8-1.3
		c0,0,8.8-3.1,20.5,0.2c0,0,11.4,1.6,16.3,1.1v-4.3c0,0-14.8-0.2-15.1-19.1v-21.6c4.6-0.5,17.7-0.9,21.1,10.1
		c0,0,8.7,35.4,37.4,35.1l20.7-0.6v-4.8C1553,804.9,1543.7,807.9,1530.8,793.2 M1491,757.5c0,0-1.5,1.5-6,2.1h-11.3v-43.4h-0.3
		l1.4-1.8c0,0,20.4-3.3,24.6,11.7c0,0,2.4,7.5,1.8,13.2C1501.2,739.3,1502.7,751.6,1491,757.5z"/>
	<path d="M1628,786.2v-55.1c0.3-18.9,15-19.1,15-19.1v-4.3c-4.8-0.5-16.1,1.1-16.1,1.1c-11.6,3.4-20.3,0.2-20.3,0.2
		c-8.1-1.6-18.9-1.3-18.9-1.3v4.5c13.7,0.4,14.4,10.2,14.8,15.5v3.2v55.6v3.2c-0.4,5.2-1.1,15.1-14.8,15.5v4.5
		c0,0,10.8,0.2,18.9-1.3c0,0,8.7-3.1,20.3,0.2c0,0,11.3,1.6,16.1,1.1v-4.3C1643,805.3,1628.3,805.1,1628,786.2"/>
	<path d="M1684.2,790.2l-28.2-42.5l24.6-24.6c0,0,12.3-11.1,23.7-10.8v-4.8c0,0-6.3-0.3-11.4,1.5c0,0-3.3,1.8-8.1-0.9
		c0,0-5.7-2.7-10.2,2.1l-41.3,46.4l31.5,42.8c0,0,13.2,16.2,45.5,10.2l0.6-4.8C1710.9,804.9,1692.9,805.8,1684.2,790.2"/>
	<path d="M1755.4,775.1l5.8,0.4c0,0,2.7,30,29.7,29.4c0,0,19.8-0.6,14.7-22.5c0,0-3-9-24.9-15.9c0,0-30.3-8.4-26.4-35.7
		c0,0,1.5-26.1,38-24.6l15.3,2.1c0,0,6.6,1.5,7.8-2.1h6.3c0,0-0.6,4.5-2.1,7.8c0,0-1.8,3,0.3,6.6c0,0,0.6,9.9,0.3,13.5h-5.7
		c0,0,1.2-20.4-20.7-21.9c0,0-22.5-0.6-17.1,19.2c0,0,1.5,9.3,27.9,17.4c0,0,27.3,9.9,24.3,31.5c0,0,0.9,24.3-27.3,30.3
		c0,0-16.5,3-32.4-2.4c0,0-6.3-3.9-9.1,1.2l-5.8,0.2c0,0-0.1-3.4,1.3-8.5c0,0,2.7-5.4,0.9-10.9
		C1756.5,790,1754.2,780.6,1755.4,775.1"/>
	<path style="fill:#A6CE38;" d="M1799,981.9c0-2.5,0.9-4.6,2.6-6.3c1.8-1.8,3.9-2.7,6.3-2.7c2.5,0,4.7,0.9,6.4,2.6
		c1.8,1.8,2.7,3.9,2.7,6.4c0,2.5-0.9,4.6-2.6,6.3c-1.8,1.7-3.9,2.5-6.5,2.5c-2.5,0-4.6-0.9-6.4-2.5
		C1799.9,986.4,1799,984.3,1799,981.9 M1739.9,1023l18.8-40.5l-27.1-62.4h13.7l20.1,49.7l21.3-49.7h13l-46.4,102.9H1739.9z
		 M1719,920.1v69.2h-11.5v-12.5c-2.8,5-6.3,8.9-10.6,11.5c-4.3,2.7-9.1,4-14.5,4c-9.9,0-17.9-3.4-24-10.2
		c-6.1-6.8-9.1-15.9-9.1-27.1c0-11.4,2.9-20.4,8.8-27.2c5.9-6.7,13.8-10.1,23.6-10.1c5.8,0,10.8,1.3,15.1,3.9
		c4.3,2.6,7.7,6.5,10.3,11.6v-13H1719z M1707.6,955.4c0-7.8-2.1-14.1-6.4-18.9c-4.3-4.8-9.8-7.1-16.7-7.1c-7.1,0-12.6,2.2-16.6,6.6
		c-4,4.4-6,10.5-6,18.4c0,8.4,2,14.8,6,19.3c4,4.5,9.7,6.8,17,6.8c7,0,12.6-2.2,16.6-6.6C1705.6,969.4,1707.6,963.3,1707.6,955.4z
		 M1630.5,872.1v117.1h-11.5v-12.5c-2.7,5-6.2,8.8-10.6,11.5c-4.3,2.7-9.2,4-14.5,4c-9.9,0-17.9-3.4-24-10.2
		c-6.1-6.8-9.1-15.9-9.1-27.1c0-11.3,3-20.4,8.9-27.1c5.9-6.8,13.8-10.1,23.7-10.1c5.7,0,10.7,1.3,15,3.9c4.2,2.6,7.6,6.5,10.3,11.6
		v-61H1630.5z M1619.1,955.1c0-7.7-2.1-13.9-6.4-18.6c-4.3-4.7-9.9-7.1-16.9-7.1c-7,0-12.5,2.1-16.4,6.4c-3.9,4.3-5.9,10.2-5.9,17.7
		c0,8.5,2,15.2,6,20c4,4.8,9.5,7.2,16.5,7.2c7.3,0,12.9-2.3,17-6.8C1617,969.4,1619.1,963.1,1619.1,955.1z M1472.6,954.9
		c0-5.1,0.9-9.9,2.8-14.4c1.9-4.5,4.6-8.5,8.2-12c3.6-3.5,7.6-6.2,12.2-8c4.5-1.8,9.4-2.8,14.5-2.8c5,0,9.8,0.9,14.3,2.8
		c4.5,1.9,8.6,4.6,12.3,8.2c3.6,3.5,6.3,7.5,8.2,12c1.9,4.5,2.8,9.3,2.8,14.3c0,5.1-0.9,9.8-2.8,14.3c-1.9,4.5-4.6,8.4-8.2,11.9
		c-3.7,3.6-7.8,6.4-12.4,8.3c-4.6,1.9-9.3,2.9-14.2,2.9c-5.1,0-9.9-1-14.5-2.8c-4.6-1.9-8.6-4.6-12.2-8.1c-3.6-3.6-6.3-7.7-8.2-12.1
		C1473.5,964.7,1472.6,960,1472.6,954.9z M1485.1,954.9c0,7.3,2.4,13.5,7.3,18.5c4.9,5.1,10.8,7.6,17.8,7.6c6.9,0,12.8-2.5,17.6-7.6
		c4.8-5.1,7.2-11.2,7.2-18.5c0-7.3-2.4-13.5-7.2-18.5c-4.8-5.1-10.7-7.6-17.6-7.6c-7,0-12.9,2.5-17.8,7.6
		C1487.5,941.4,1485.1,947.6,1485.1,954.9z M1438.7,989.3v-98.1h-31.3v-12.5h75.7v12.5H1452v98.1H1438.7z M1328.5,981.9
		c0-2.5,0.9-4.6,2.6-6.3c1.8-1.8,3.9-2.7,6.3-2.7c2.5,0,4.7,0.9,6.4,2.6c1.8,1.8,2.7,3.9,2.7,6.4c0,2.5-0.9,4.6-2.6,6.3
		c-1.8,1.7-3.9,2.5-6.5,2.5c-2.5,0-4.6-0.9-6.4-2.5C1329.4,986.4,1328.5,984.3,1328.5,981.9z M1269.4,1023l18.8-40.5l-27.1-62.4
		h13.7l20.1,49.7l21.3-49.7h13l-46.4,102.9H1269.4z M1248,872.1v117.1h-11.5v-12.5c-2.7,5-6.2,8.8-10.6,11.5c-4.3,2.7-9.2,4-14.5,4
		c-9.9,0-17.9-3.4-24-10.2c-6.1-6.8-9.1-15.9-9.1-27.1c0-11.3,3-20.4,8.9-27.1c5.9-6.8,13.9-10.1,23.7-10.1c5.7,0,10.7,1.3,15,3.9
		c4.2,2.6,7.6,6.5,10.3,11.6v-61H1248z M1236.6,955.1c0-7.7-2.1-13.9-6.4-18.6c-4.3-4.7-9.9-7.1-16.9-7.1c-7,0-12.5,2.1-16.4,6.4
		c-3.9,4.3-5.9,10.2-5.9,17.7c0,8.5,2,15.2,6,20c4,4.8,9.5,7.2,16.5,7.2c7.3,0,12.9-2.3,17-6.8
		C1234.5,969.4,1236.6,963.1,1236.6,955.1z M1160,920.1v69.2h-11.5v-12.5c-2.8,5-6.3,8.9-10.6,11.5c-4.3,2.7-9.1,4-14.5,4
		c-9.9,0-17.9-3.4-24-10.2c-6.1-6.8-9.1-15.9-9.1-27.1c0-11.4,2.9-20.4,8.8-27.2c5.9-6.7,13.8-10.1,23.6-10.1
		c5.8,0,10.8,1.3,15.1,3.9c4.3,2.6,7.7,6.5,10.3,11.6v-13H1160z M1148.5,955.4c0-7.8-2.1-14.1-6.4-18.9c-4.3-4.8-9.8-7.1-16.7-7.1
		c-7.1,0-12.6,2.2-16.6,6.6c-4,4.4-6,10.5-6,18.4c0,8.4,2,14.8,6,19.3c4,4.5,9.7,6.8,17,6.8c7,0,12.6-2.2,16.6-6.6
		C1146.5,969.4,1148.5,963.3,1148.5,955.4z M1077.8,956.5H1023v1.1c0,7.4,2.1,13.4,6.3,18c4.2,4.6,9.7,6.8,16.6,6.8
		c4.6,0,8.8-1.2,12.5-3.7c3.7-2.5,7-6.2,9.9-11.3l9,6c-3.5,6.2-7.9,11-13.3,14.1c-5.4,3.2-11.6,4.7-18.8,4.7
		c-10.5,0-19-3.5-25.5-10.4c-6.5-7-9.7-16.1-9.7-27.4c0-10.8,3.2-19.7,9.7-26.6c6.4-6.9,14.7-10.3,24.9-10.3
		c10.2,0,18.3,3.3,24.3,9.8c6,6.6,8.9,15.5,8.9,26.8V956.5z M1065.1,946.9c-0.4-6.1-2.4-10.8-6.1-14.1c-3.6-3.3-8.6-5-15-5
		c-5.8,0-10.5,1.7-14.4,5.2c-3.8,3.4-6.1,8-6.7,13.8H1065.1z M947.3,889.8v37h10c10.3,0,17.2-1.3,20.7-4c3.5-2.6,5.2-7.2,5.2-13.8
		c0-7.1-1.8-12-5.4-14.9c-3.6-2.8-10.4-4.3-20.5-4.3H947.3z M934.5,989.3V878.6h26c7.4,0,12.8,0.4,16.3,1.2c3.5,0.9,6.5,2.3,9.1,4.3
		c3.3,2.6,5.8,6,7.6,10.3c1.8,4.3,2.7,9.1,2.7,14.3c0,9.1-2.5,16-7.6,20.7c-5.1,4.7-12.5,7.1-22.3,7.1H964l42.2,52.8h-16.7
		l-40.4-52.8h-1.9v52.8H934.5z M869.8,956.5H815v1.1c0,7.4,2.1,13.4,6.3,18c4.2,4.6,9.7,6.8,16.6,6.8c4.6,0,8.8-1.2,12.5-3.7
		c3.7-2.5,7-6.2,9.9-11.3l9,6c-3.5,6.2-7.9,11-13.3,14.1c-5.4,3.2-11.6,4.7-18.7,4.7c-10.5,0-19-3.5-25.5-10.4
		c-6.5-7-9.7-16.1-9.7-27.4c0-10.8,3.2-19.7,9.7-26.6c6.4-6.9,14.7-10.3,24.9-10.3c10.2,0,18.3,3.3,24.3,9.8
		c6,6.6,8.9,15.5,8.9,26.8V956.5z M857.1,946.9c-0.4-6.1-2.4-10.8-6.1-14.1c-3.6-3.3-8.6-5-15-5c-5.8,0-10.5,1.7-14.4,5.2
		c-3.8,3.4-6.1,8-6.7,13.8H857.1z M753.9,989.3v-69.2h10.5v14.4c3.2-6,6.6-10.3,10.1-12.9c3.6-2.6,7.9-3.9,13.1-3.9
		c1.4,0,2.8,0.1,4.1,0.3c1.3,0.2,2.6,0.6,3.9,1l-3.9,10.7c-1.4-0.5-2.7-0.8-3.9-1c-1.2-0.2-2.4-0.3-3.5-0.3
		c-6.2,0-10.9,2.2-14.1,6.8c-3.1,4.5-4.7,11.3-4.7,20.3v33.7H753.9z M680.2,920.1v34c0,9.9,1.5,16.9,4.4,20.8
		c3,3.9,7.9,5.9,14.9,5.9c7,0,11.9-2,14.9-5.9c2.9-3.9,4.3-10.9,4.3-20.9v-34h12.1v40.4c0,10.4-2.7,18.3-8,23.7
		c-5.3,5.4-13.2,8-23.6,8c-10.3,0-18.1-2.7-23.4-8.1c-5.3-5.4-8-13.3-8-23.6v-40.4H680.2z M630.9,929.8h-12.7v-9.7h12.7v-27.9H643
		v27.9h12.7v9.7H643v59.4h-12.1V929.8z M555.6,920.1v34c0,9.9,1.5,16.9,4.4,20.8c3,3.9,7.9,5.9,14.9,5.9c7,0,11.9-2,14.9-5.9
		c2.9-3.9,4.3-10.9,4.3-20.9v-34h12.1v40.4c0,10.4-2.7,18.3-8,23.7c-5.3,5.4-13.2,8-23.6,8c-10.3,0-18.1-2.7-23.4-8.1
		c-5.3-5.4-8-13.3-8-23.6v-40.4H555.6z M469.9,989.3V878.6h58.3v12.1h-45.2v31.7h45.2v12.2h-45.2v54.6H469.9z"/>
</g>
</svg>
